<svg xmlns="http://www.w3.org/2000/svg" viewBox="0 0 24 24" x="0px" y="0px">
  <title>Artboard 8</title>
  <g>
    <path d="M19.78,4.22a11,11,0,1,0,0,15.56A11,11,0,0,0,19.78,4.22ZM18.36,18.36a9,9,0,1,1,0-12.72A9,9,0,0,1,18.36,18.36Z"/>
    <path d="M17,7.05a1,1,0,0,0-1.41,0L12,10.59,8.46,7.05A1,1,0,0,0,7.05,8.46L10.59,12,7.05,15.54a1,1,0,0,0,0,1.41,1,1,0,0,0,.71.29,1,1,0,0,0,.7-.29L12,13.41,15.54,17a1,1,0,0,0,.7.29A1,1,0,0,0,17,17a1,1,0,0,0,0-1.41L13.41,12,17,8.46A1,1,0,0,0,17,7.05Z"/>
  </g>

</svg>
